<mxfile host="app.diagrams.net" agent="Mozilla/5.0 (X11; Linux x86_64) AppleWebKit/537.36 (KHTML, like Gecko) Chrome/135.0.0.0 Safari/537.36" version="27.1.1">
  <diagram name="PÃ¡gina-1" id="d2-93ZYyZYt3RrMfoLrl">
    <mxGraphModel dx="3203" dy="2734" grid="1" gridSize="10" guides="1" tooltips="1" connect="1" arrows="1" fold="1" page="1" pageScale="1" pageWidth="827" pageHeight="1169" math="0" shadow="0">
      <root>
        <mxCell id="0" />
        <mxCell id="1" parent="0" />
        <mxCell id="QBSZ2mpLJ4u34UwG9ziR-1" value="REACT-APP-SEM-INTERFACE" style="rounded=1;whiteSpace=wrap;html=1;fontFamily=Poppins;fontSource=https%3A%2F%2Ffonts.googleapis.com%2Fcss%3Ffamily%3DPoppins;fontStyle=1;fontSize=16;fillColor=#647687;strokeColor=#314354;fontColor=#ffffff;" parent="1" vertex="1">
          <mxGeometry x="210" y="502" width="290" height="40" as="geometry" />
        </mxCell>
        <mxCell id="QBSZ2mpLJ4u34UwG9ziR-3" value="dist" style="rounded=1;whiteSpace=wrap;html=1;fontFamily=Poppins;fontSource=https%3A%2F%2Ffonts.googleapis.com%2Fcss%3Ffamily%3DPoppins;fontStyle=1;fontSize=12;fillColor=#b1ddf0;strokeColor=#10739e;" parent="1" vertex="1">
          <mxGeometry x="571" y="84" width="170" height="40" as="geometry" />
        </mxCell>
        <mxCell id="QBSZ2mpLJ4u34UwG9ziR-4" value="node_modules" style="rounded=1;whiteSpace=wrap;html=1;fontFamily=Poppins;fontSource=https%3A%2F%2Ffonts.googleapis.com%2Fcss%3Ffamily%3DPoppins;fontStyle=1;fontSize=12;fillColor=#b1ddf0;strokeColor=#10739e;" parent="1" vertex="1">
          <mxGeometry x="571" y="143" width="170" height="40" as="geometry" />
        </mxCell>
        <mxCell id="QBSZ2mpLJ4u34UwG9ziR-5" value="public" style="rounded=1;whiteSpace=wrap;html=1;fontFamily=Poppins;fontSource=https%3A%2F%2Ffonts.googleapis.com%2Fcss%3Ffamily%3DPoppins;fontStyle=1;fontSize=12;fillColor=#b1ddf0;strokeColor=#10739e;" parent="1" vertex="1">
          <mxGeometry x="571" y="203" width="170" height="40" as="geometry" />
        </mxCell>
        <mxCell id="QBSZ2mpLJ4u34UwG9ziR-6" value="src" style="rounded=1;whiteSpace=wrap;html=1;fontFamily=Poppins;fontSource=https%3A%2F%2Ffonts.googleapis.com%2Fcss%3Ffamily%3DPoppins;fontStyle=1;fontSize=12;fillColor=#b1ddf0;strokeColor=#10739e;" parent="1" vertex="1">
          <mxGeometry x="571" y="262" width="170" height="42" as="geometry" />
        </mxCell>
        <mxCell id="QBSZ2mpLJ4u34UwG9ziR-7" value=".env" style="rounded=1;whiteSpace=wrap;html=1;fillColor=#fff2cc;strokeColor=#d6b656;fontStyle=1;fontFamily=Poppins;fontSource=https%3A%2F%2Ffonts.googleapis.com%2Fcss%3Ffamily%3DPoppins;" parent="1" vertex="1">
          <mxGeometry x="571" y="324" width="170" height="40" as="geometry" />
        </mxCell>
        <mxCell id="QBSZ2mpLJ4u34UwG9ziR-8" value="index.html" style="rounded=1;whiteSpace=wrap;html=1;fillColor=#fff2cc;strokeColor=#d6b656;fontStyle=1;fontFamily=Poppins;fontSource=https%3A%2F%2Ffonts.googleapis.com%2Fcss%3Ffamily%3DPoppins;" parent="1" vertex="1">
          <mxGeometry x="571" y="383" width="170" height="40" as="geometry" />
        </mxCell>
        <mxCell id="QBSZ2mpLJ4u34UwG9ziR-9" value="package-lock.json" style="rounded=1;whiteSpace=wrap;html=1;fillColor=#fff2cc;strokeColor=#d6b656;fontStyle=1;fontFamily=Poppins;fontSource=https%3A%2F%2Ffonts.googleapis.com%2Fcss%3Ffamily%3DPoppins;" parent="1" vertex="1">
          <mxGeometry x="571" y="442" width="170" height="40" as="geometry" />
        </mxCell>
        <mxCell id="QBSZ2mpLJ4u34UwG9ziR-10" value="package.json" style="rounded=1;whiteSpace=wrap;html=1;fillColor=#fff2cc;strokeColor=#d6b656;fontStyle=1;fontFamily=Poppins;fontSource=https%3A%2F%2Ffonts.googleapis.com%2Fcss%3Ffamily%3DPoppins;" parent="1" vertex="1">
          <mxGeometry x="571" y="501" width="170" height="40" as="geometry" />
        </mxCell>
        <mxCell id="QBSZ2mpLJ4u34UwG9ziR-11" value="postcss.config.js" style="rounded=1;whiteSpace=wrap;html=1;fillColor=#fff2cc;strokeColor=#d6b656;fontStyle=1;fontFamily=Poppins;fontSource=https%3A%2F%2Ffonts.googleapis.com%2Fcss%3Ffamily%3DPoppins;" parent="1" vertex="1">
          <mxGeometry x="571" y="559" width="170" height="40" as="geometry" />
        </mxCell>
        <mxCell id="QBSZ2mpLJ4u34UwG9ziR-12" value="README.md" style="rounded=1;whiteSpace=wrap;html=1;fillColor=#fff2cc;strokeColor=#d6b656;fontStyle=1;fontFamily=Poppins;fontSource=https%3A%2F%2Ffonts.googleapis.com%2Fcss%3Ffamily%3DPoppins;" parent="1" vertex="1">
          <mxGeometry x="571" y="617" width="170" height="40" as="geometry" />
        </mxCell>
        <mxCell id="QBSZ2mpLJ4u34UwG9ziR-13" value="ScriptSQL.SQL" style="rounded=1;whiteSpace=wrap;html=1;fillColor=#fff2cc;strokeColor=#d6b656;fontStyle=1;fontFamily=Poppins;fontSource=https%3A%2F%2Ffonts.googleapis.com%2Fcss%3Ffamily%3DPoppins;" parent="1" vertex="1">
          <mxGeometry x="571" y="675" width="170" height="40" as="geometry" />
        </mxCell>
        <mxCell id="QBSZ2mpLJ4u34UwG9ziR-14" value="tailwind.config.js" style="rounded=1;whiteSpace=wrap;html=1;fillColor=#fff2cc;strokeColor=#d6b656;fontStyle=1;fontFamily=Poppins;fontSource=https%3A%2F%2Ffonts.googleapis.com%2Fcss%3Ffamily%3DPoppins;" parent="1" vertex="1">
          <mxGeometry x="571" y="735" width="170" height="40" as="geometry" />
        </mxCell>
        <mxCell id="QBSZ2mpLJ4u34UwG9ziR-16" value="VersionHistory.md" style="rounded=1;whiteSpace=wrap;html=1;fillColor=#fff2cc;strokeColor=#d6b656;fontStyle=1;fontFamily=Poppins;fontSource=https%3A%2F%2Ffonts.googleapis.com%2Fcss%3Ffamily%3DPoppins;" parent="1" vertex="1">
          <mxGeometry x="571" y="796" width="170" height="40" as="geometry" />
        </mxCell>
        <mxCell id="QBSZ2mpLJ4u34UwG9ziR-17" value="vite.config.js" style="rounded=1;whiteSpace=wrap;html=1;fillColor=#fff2cc;strokeColor=#d6b656;fontStyle=1;fontFamily=Poppins;fontSource=https%3A%2F%2Ffonts.googleapis.com%2Fcss%3Ffamily%3DPoppins;" parent="1" vertex="1">
          <mxGeometry x="571" y="855" width="170" height="40" as="geometry" />
        </mxCell>
        <mxCell id="QBSZ2mpLJ4u34UwG9ziR-18" value="favicon.ico" style="rounded=1;whiteSpace=wrap;html=1;fillColor=#fff2cc;strokeColor=#d6b656;fontStyle=1;fontFamily=Poppins;fontSource=https%3A%2F%2Ffonts.googleapis.com%2Fcss%3Ffamily%3DPoppins;" parent="1" vertex="1">
          <mxGeometry x="790" y="203" width="170" height="40" as="geometry" />
        </mxCell>
        <mxCell id="QBSZ2mpLJ4u34UwG9ziR-20" value="components" style="rounded=1;whiteSpace=wrap;html=1;fontFamily=Poppins;fontSource=https%3A%2F%2Ffonts.googleapis.com%2Fcss%3Ffamily%3DPoppins;fontStyle=1;fontSize=12;fillColor=#b1ddf0;strokeColor=#10739e;" parent="1" vertex="1">
          <mxGeometry x="790" y="391" width="170" height="40" as="geometry" />
        </mxCell>
        <mxCell id="QBSZ2mpLJ4u34UwG9ziR-21" value="img" style="rounded=1;whiteSpace=wrap;html=1;fontFamily=Poppins;fontSource=https%3A%2F%2Ffonts.googleapis.com%2Fcss%3Ffamily%3DPoppins;fontStyle=1;fontSize=12;fillColor=#b1ddf0;strokeColor=#10739e;" parent="1" vertex="1">
          <mxGeometry x="790" y="442" width="170" height="40" as="geometry" />
        </mxCell>
        <mxCell id="QBSZ2mpLJ4u34UwG9ziR-22" value="modulos" style="rounded=1;whiteSpace=wrap;html=1;fontFamily=Poppins;fontSource=https%3A%2F%2Ffonts.googleapis.com%2Fcss%3Ffamily%3DPoppins;fontStyle=1;fontSize=12;fillColor=#b1ddf0;strokeColor=#10739e;" parent="1" vertex="1">
          <mxGeometry x="790" y="492" width="170" height="40" as="geometry" />
        </mxCell>
        <mxCell id="QBSZ2mpLJ4u34UwG9ziR-24" value="App.jsx" style="rounded=1;whiteSpace=wrap;html=1;fillColor=#fff2cc;strokeColor=#d6b656;fontStyle=1;fontFamily=Poppins;fontSource=https%3A%2F%2Ffonts.googleapis.com%2Fcss%3Ffamily%3DPoppins;" parent="1" vertex="1">
          <mxGeometry x="790" y="542" width="170" height="40" as="geometry" />
        </mxCell>
        <mxCell id="QBSZ2mpLJ4u34UwG9ziR-25" value="index.css" style="rounded=1;whiteSpace=wrap;html=1;fillColor=#fff2cc;strokeColor=#d6b656;fontStyle=1;fontFamily=Poppins;fontSource=https%3A%2F%2Ffonts.googleapis.com%2Fcss%3Ffamily%3DPoppins;" parent="1" vertex="1">
          <mxGeometry x="790" y="592" width="170" height="40" as="geometry" />
        </mxCell>
        <mxCell id="QBSZ2mpLJ4u34UwG9ziR-26" value="index.jsx" style="rounded=1;whiteSpace=wrap;html=1;fillColor=#fff2cc;strokeColor=#d6b656;fontStyle=1;fontFamily=Poppins;fontSource=https%3A%2F%2Ffonts.googleapis.com%2Fcss%3Ffamily%3DPoppins;" parent="1" vertex="1">
          <mxGeometry x="790" y="642" width="170" height="40" as="geometry" />
        </mxCell>
        <mxCell id="QBSZ2mpLJ4u34UwG9ziR-30" value="" style="endArrow=classic;html=1;rounded=0;exitX=1;exitY=0.5;exitDx=0;exitDy=0;entryX=0;entryY=0.5;entryDx=0;entryDy=0;edgeStyle=orthogonalEdgeStyle;" parent="1" source="QBSZ2mpLJ4u34UwG9ziR-1" target="QBSZ2mpLJ4u34UwG9ziR-3" edge="1">
          <mxGeometry width="50" height="50" relative="1" as="geometry">
            <mxPoint x="520" y="520" as="sourcePoint" />
            <mxPoint x="650" y="460" as="targetPoint" />
          </mxGeometry>
        </mxCell>
        <mxCell id="QBSZ2mpLJ4u34UwG9ziR-31" value="" style="endArrow=classic;html=1;rounded=0;exitX=1;exitY=0.5;exitDx=0;exitDy=0;entryX=0;entryY=0.5;entryDx=0;entryDy=0;edgeStyle=orthogonalEdgeStyle;" parent="1" source="QBSZ2mpLJ4u34UwG9ziR-1" target="QBSZ2mpLJ4u34UwG9ziR-4" edge="1">
          <mxGeometry width="50" height="50" relative="1" as="geometry">
            <mxPoint x="520" y="520" as="sourcePoint" />
            <mxPoint x="650" y="460" as="targetPoint" />
          </mxGeometry>
        </mxCell>
        <mxCell id="QBSZ2mpLJ4u34UwG9ziR-32" value="" style="endArrow=classic;html=1;rounded=0;exitX=1;exitY=0.5;exitDx=0;exitDy=0;entryX=0;entryY=0.5;entryDx=0;entryDy=0;edgeStyle=orthogonalEdgeStyle;" parent="1" source="QBSZ2mpLJ4u34UwG9ziR-1" target="QBSZ2mpLJ4u34UwG9ziR-5" edge="1">
          <mxGeometry width="50" height="50" relative="1" as="geometry">
            <mxPoint x="520" y="520" as="sourcePoint" />
            <mxPoint x="650" y="300" as="targetPoint" />
          </mxGeometry>
        </mxCell>
        <mxCell id="QBSZ2mpLJ4u34UwG9ziR-34" value="" style="endArrow=classic;html=1;rounded=0;exitX=1;exitY=0.5;exitDx=0;exitDy=0;entryX=0;entryY=0.5;entryDx=0;entryDy=0;edgeStyle=orthogonalEdgeStyle;" parent="1" source="QBSZ2mpLJ4u34UwG9ziR-1" target="QBSZ2mpLJ4u34UwG9ziR-6" edge="1">
          <mxGeometry width="50" height="50" relative="1" as="geometry">
            <mxPoint x="520" y="520" as="sourcePoint" />
            <mxPoint x="490" y="340" as="targetPoint" />
          </mxGeometry>
        </mxCell>
        <mxCell id="QBSZ2mpLJ4u34UwG9ziR-35" value="" style="endArrow=classic;html=1;rounded=0;exitX=1;exitY=0.5;exitDx=0;exitDy=0;entryX=0;entryY=0.5;entryDx=0;entryDy=0;edgeStyle=orthogonalEdgeStyle;" parent="1" source="QBSZ2mpLJ4u34UwG9ziR-1" target="QBSZ2mpLJ4u34UwG9ziR-7" edge="1">
          <mxGeometry width="50" height="50" relative="1" as="geometry">
            <mxPoint x="520" y="520" as="sourcePoint" />
            <mxPoint x="650" y="300" as="targetPoint" />
          </mxGeometry>
        </mxCell>
        <mxCell id="QBSZ2mpLJ4u34UwG9ziR-36" value="" style="endArrow=classic;html=1;rounded=0;exitX=1;exitY=0.5;exitDx=0;exitDy=0;entryX=0;entryY=0.5;entryDx=0;entryDy=0;edgeStyle=orthogonalEdgeStyle;" parent="1" source="QBSZ2mpLJ4u34UwG9ziR-1" target="QBSZ2mpLJ4u34UwG9ziR-8" edge="1">
          <mxGeometry width="50" height="50" relative="1" as="geometry">
            <mxPoint x="520" y="520" as="sourcePoint" />
            <mxPoint x="650" y="380" as="targetPoint" />
          </mxGeometry>
        </mxCell>
        <mxCell id="QBSZ2mpLJ4u34UwG9ziR-37" value="" style="endArrow=classic;html=1;rounded=0;exitX=1;exitY=0.5;exitDx=0;exitDy=0;entryX=0;entryY=0.5;entryDx=0;entryDy=0;edgeStyle=orthogonalEdgeStyle;" parent="1" source="QBSZ2mpLJ4u34UwG9ziR-1" target="QBSZ2mpLJ4u34UwG9ziR-9" edge="1">
          <mxGeometry width="50" height="50" relative="1" as="geometry">
            <mxPoint x="520" y="520" as="sourcePoint" />
            <mxPoint x="560" y="460" as="targetPoint" />
          </mxGeometry>
        </mxCell>
        <mxCell id="QBSZ2mpLJ4u34UwG9ziR-38" value="" style="endArrow=classic;html=1;rounded=0;exitX=1;exitY=0.5;exitDx=0;exitDy=0;" parent="1" source="QBSZ2mpLJ4u34UwG9ziR-1" target="QBSZ2mpLJ4u34UwG9ziR-10" edge="1">
          <mxGeometry width="50" height="50" relative="1" as="geometry">
            <mxPoint x="520" y="520" as="sourcePoint" />
            <mxPoint x="650" y="460" as="targetPoint" />
          </mxGeometry>
        </mxCell>
        <mxCell id="QBSZ2mpLJ4u34UwG9ziR-39" value="" style="endArrow=classic;html=1;rounded=0;exitX=1;exitY=0.5;exitDx=0;exitDy=0;entryX=0;entryY=0.5;entryDx=0;entryDy=0;edgeStyle=orthogonalEdgeStyle;" parent="1" source="QBSZ2mpLJ4u34UwG9ziR-1" target="QBSZ2mpLJ4u34UwG9ziR-17" edge="1">
          <mxGeometry width="50" height="50" relative="1" as="geometry">
            <mxPoint x="520" y="520" as="sourcePoint" />
            <mxPoint x="650" y="700" as="targetPoint" />
          </mxGeometry>
        </mxCell>
        <mxCell id="QBSZ2mpLJ4u34UwG9ziR-40" value="" style="endArrow=classic;html=1;rounded=0;exitX=1;exitY=0.5;exitDx=0;exitDy=0;entryX=0;entryY=0.5;entryDx=0;entryDy=0;edgeStyle=orthogonalEdgeStyle;" parent="1" source="QBSZ2mpLJ4u34UwG9ziR-1" target="QBSZ2mpLJ4u34UwG9ziR-16" edge="1">
          <mxGeometry width="50" height="50" relative="1" as="geometry">
            <mxPoint x="520" y="520" as="sourcePoint" />
            <mxPoint x="650" y="700" as="targetPoint" />
          </mxGeometry>
        </mxCell>
        <mxCell id="QBSZ2mpLJ4u34UwG9ziR-42" value="" style="endArrow=classic;html=1;rounded=0;exitX=1;exitY=0.5;exitDx=0;exitDy=0;entryX=0;entryY=0.5;entryDx=0;entryDy=0;edgeStyle=orthogonalEdgeStyle;" parent="1" source="QBSZ2mpLJ4u34UwG9ziR-1" target="QBSZ2mpLJ4u34UwG9ziR-14" edge="1">
          <mxGeometry width="50" height="50" relative="1" as="geometry">
            <mxPoint x="520" y="520" as="sourcePoint" />
            <mxPoint x="650" y="700" as="targetPoint" />
          </mxGeometry>
        </mxCell>
        <mxCell id="QBSZ2mpLJ4u34UwG9ziR-43" value="" style="endArrow=classic;html=1;rounded=0;exitX=1;exitY=0.5;exitDx=0;exitDy=0;entryX=0;entryY=0.5;entryDx=0;entryDy=0;edgeStyle=orthogonalEdgeStyle;" parent="1" source="QBSZ2mpLJ4u34UwG9ziR-1" target="QBSZ2mpLJ4u34UwG9ziR-13" edge="1">
          <mxGeometry width="50" height="50" relative="1" as="geometry">
            <mxPoint x="520" y="520" as="sourcePoint" />
            <mxPoint x="650" y="700" as="targetPoint" />
          </mxGeometry>
        </mxCell>
        <mxCell id="QBSZ2mpLJ4u34UwG9ziR-44" value="" style="endArrow=classic;html=1;rounded=0;exitX=1;exitY=0.5;exitDx=0;exitDy=0;entryX=0;entryY=0.5;entryDx=0;entryDy=0;edgeStyle=orthogonalEdgeStyle;" parent="1" source="QBSZ2mpLJ4u34UwG9ziR-1" target="QBSZ2mpLJ4u34UwG9ziR-12" edge="1">
          <mxGeometry width="50" height="50" relative="1" as="geometry">
            <mxPoint x="520" y="520" as="sourcePoint" />
            <mxPoint x="650" y="700" as="targetPoint" />
          </mxGeometry>
        </mxCell>
        <mxCell id="QBSZ2mpLJ4u34UwG9ziR-45" value="" style="endArrow=classic;html=1;rounded=0;exitX=1;exitY=0.5;exitDx=0;exitDy=0;entryX=0;entryY=0.5;entryDx=0;entryDy=0;edgeStyle=orthogonalEdgeStyle;" parent="1" source="QBSZ2mpLJ4u34UwG9ziR-1" target="QBSZ2mpLJ4u34UwG9ziR-11" edge="1">
          <mxGeometry width="50" height="50" relative="1" as="geometry">
            <mxPoint x="520" y="520" as="sourcePoint" />
            <mxPoint x="650" y="700" as="targetPoint" />
          </mxGeometry>
        </mxCell>
        <mxCell id="QBSZ2mpLJ4u34UwG9ziR-47" value="" style="endArrow=classic;html=1;rounded=0;entryX=0;entryY=0.5;entryDx=0;entryDy=0;exitX=1;exitY=0.5;exitDx=0;exitDy=0;edgeStyle=orthogonalEdgeStyle;" parent="1" source="QBSZ2mpLJ4u34UwG9ziR-5" target="QBSZ2mpLJ4u34UwG9ziR-18" edge="1">
          <mxGeometry width="50" height="50" relative="1" as="geometry">
            <mxPoint x="610" y="280" as="sourcePoint" />
            <mxPoint x="660" y="230" as="targetPoint" />
          </mxGeometry>
        </mxCell>
        <mxCell id="QBSZ2mpLJ4u34UwG9ziR-48" value="" style="endArrow=classic;html=1;rounded=0;exitX=1;exitY=0.5;exitDx=0;exitDy=0;entryX=0;entryY=0.5;entryDx=0;entryDy=0;edgeStyle=orthogonalEdgeStyle;" parent="1" source="QBSZ2mpLJ4u34UwG9ziR-6" target="QBSZ2mpLJ4u34UwG9ziR-20" edge="1">
          <mxGeometry width="50" height="50" relative="1" as="geometry">
            <mxPoint x="870" y="360" as="sourcePoint" />
            <mxPoint x="920" y="310" as="targetPoint" />
          </mxGeometry>
        </mxCell>
        <mxCell id="QBSZ2mpLJ4u34UwG9ziR-49" value="" style="endArrow=classic;html=1;rounded=0;exitX=1;exitY=0.5;exitDx=0;exitDy=0;entryX=0;entryY=0.5;entryDx=0;entryDy=0;edgeStyle=orthogonalEdgeStyle;" parent="1" source="QBSZ2mpLJ4u34UwG9ziR-6" target="QBSZ2mpLJ4u34UwG9ziR-21" edge="1">
          <mxGeometry width="50" height="50" relative="1" as="geometry">
            <mxPoint x="870" y="360" as="sourcePoint" />
            <mxPoint x="920" y="310" as="targetPoint" />
          </mxGeometry>
        </mxCell>
        <mxCell id="QBSZ2mpLJ4u34UwG9ziR-50" value="" style="endArrow=classic;html=1;rounded=0;exitX=1;exitY=0.5;exitDx=0;exitDy=0;entryX=0;entryY=0.5;entryDx=0;entryDy=0;edgeStyle=orthogonalEdgeStyle;" parent="1" source="QBSZ2mpLJ4u34UwG9ziR-6" target="QBSZ2mpLJ4u34UwG9ziR-22" edge="1">
          <mxGeometry width="50" height="50" relative="1" as="geometry">
            <mxPoint x="870" y="360" as="sourcePoint" />
            <mxPoint x="920" y="310" as="targetPoint" />
          </mxGeometry>
        </mxCell>
        <mxCell id="QBSZ2mpLJ4u34UwG9ziR-51" value="" style="endArrow=classic;html=1;rounded=0;exitX=1;exitY=0.5;exitDx=0;exitDy=0;entryX=0;entryY=0.5;entryDx=0;entryDy=0;edgeStyle=orthogonalEdgeStyle;" parent="1" source="QBSZ2mpLJ4u34UwG9ziR-6" target="QBSZ2mpLJ4u34UwG9ziR-24" edge="1">
          <mxGeometry width="50" height="50" relative="1" as="geometry">
            <mxPoint x="870" y="360" as="sourcePoint" />
            <mxPoint x="920" y="310" as="targetPoint" />
          </mxGeometry>
        </mxCell>
        <mxCell id="QBSZ2mpLJ4u34UwG9ziR-52" value="" style="endArrow=classic;html=1;rounded=0;exitX=1;exitY=0.5;exitDx=0;exitDy=0;entryX=0;entryY=0.5;entryDx=0;entryDy=0;edgeStyle=orthogonalEdgeStyle;" parent="1" source="QBSZ2mpLJ4u34UwG9ziR-6" target="QBSZ2mpLJ4u34UwG9ziR-25" edge="1">
          <mxGeometry width="50" height="50" relative="1" as="geometry">
            <mxPoint x="870" y="360" as="sourcePoint" />
            <mxPoint x="920" y="310" as="targetPoint" />
          </mxGeometry>
        </mxCell>
        <mxCell id="QBSZ2mpLJ4u34UwG9ziR-53" value="" style="endArrow=classic;html=1;rounded=0;exitX=1;exitY=0.5;exitDx=0;exitDy=0;entryX=0;entryY=0.5;entryDx=0;entryDy=0;edgeStyle=orthogonalEdgeStyle;" parent="1" source="QBSZ2mpLJ4u34UwG9ziR-6" target="QBSZ2mpLJ4u34UwG9ziR-26" edge="1">
          <mxGeometry width="50" height="50" relative="1" as="geometry">
            <mxPoint x="870" y="360" as="sourcePoint" />
            <mxPoint x="920" y="310" as="targetPoint" />
          </mxGeometry>
        </mxCell>
        <mxCell id="QBSZ2mpLJ4u34UwG9ziR-54" value="AnimationOffLine.jsx" style="rounded=1;whiteSpace=wrap;html=1;fontFamily=Poppins;fontSource=https%3A%2F%2Ffonts.googleapis.com%2Fcss%3Ffamily%3DPoppins;fontStyle=1;fontSize=12;fillColor=#fff2cc;strokeColor=#d6b656;" parent="1" vertex="1">
          <mxGeometry x="1280" y="-274" width="170" height="40" as="geometry" />
        </mxCell>
        <mxCell id="QBSZ2mpLJ4u34UwG9ziR-55" value="ConfirmDialog.jsx" style="rounded=1;whiteSpace=wrap;html=1;fontFamily=Poppins;fontSource=https%3A%2F%2Ffonts.googleapis.com%2Fcss%3Ffamily%3DPoppins;fontStyle=1;fontSize=12;fillColor=#fff2cc;strokeColor=#d6b656;" parent="1" vertex="1">
          <mxGeometry x="1280" y="-222" width="170" height="40" as="geometry" />
        </mxCell>
        <mxCell id="QBSZ2mpLJ4u34UwG9ziR-56" value="CycleSummary.jsx" style="rounded=1;whiteSpace=wrap;html=1;fontFamily=Poppins;fontSource=https%3A%2F%2Ffonts.googleapis.com%2Fcss%3Ffamily%3DPoppins;fontStyle=1;fontSize=12;fillColor=#fff2cc;strokeColor=#d6b656;" parent="1" vertex="1">
          <mxGeometry x="1280" y="-171" width="170" height="40" as="geometry" />
        </mxCell>
        <mxCell id="QBSZ2mpLJ4u34UwG9ziR-57" value="CycleTimes.jsx" style="rounded=1;whiteSpace=wrap;html=1;fontFamily=Poppins;fontSource=https%3A%2F%2Ffonts.googleapis.com%2Fcss%3Ffamily%3DPoppins;fontStyle=1;fontSize=12;fillColor=#fff2cc;strokeColor=#d6b656;" parent="1" vertex="1">
          <mxGeometry x="1280" y="-120" width="170" height="40" as="geometry" />
        </mxCell>
        <mxCell id="QBSZ2mpLJ4u34UwG9ziR-58" value="Icons.js" style="rounded=1;whiteSpace=wrap;html=1;fillColor=#fff2cc;strokeColor=#d6b656;fontStyle=1;fontFamily=Poppins;fontSource=https%3A%2F%2Ffonts.googleapis.com%2Fcss%3Ffamily%3DPoppins;" parent="1" vertex="1">
          <mxGeometry x="1280" y="-68" width="170" height="40" as="geometry" />
        </mxCell>
        <mxCell id="QBSZ2mpLJ4u34UwG9ziR-59" value="Images.js" style="rounded=1;whiteSpace=wrap;html=1;fillColor=#fff2cc;strokeColor=#d6b656;fontStyle=1;fontFamily=Poppins;fontSource=https%3A%2F%2Ffonts.googleapis.com%2Fcss%3Ffamily%3DPoppins;" parent="1" vertex="1">
          <mxGeometry x="1280" y="-16" width="170" height="40" as="geometry" />
        </mxCell>
        <mxCell id="QBSZ2mpLJ4u34UwG9ziR-60" value="LoadingOverlay.jsx" style="rounded=1;whiteSpace=wrap;html=1;fillColor=#fff2cc;strokeColor=#d6b656;fontStyle=1;fontFamily=Poppins;fontSource=https%3A%2F%2Ffonts.googleapis.com%2Fcss%3Ffamily%3DPoppins;" parent="1" vertex="1">
          <mxGeometry x="1280" y="36" width="170" height="40" as="geometry" />
        </mxCell>
        <mxCell id="QBSZ2mpLJ4u34UwG9ziR-61" value="MatrizConflicto.jsx" style="rounded=1;whiteSpace=wrap;html=1;fillColor=#fff2cc;strokeColor=#d6b656;fontStyle=1;fontFamily=Poppins;fontSource=https%3A%2F%2Ffonts.googleapis.com%2Fcss%3Ffamily%3DPoppins;" parent="1" vertex="1">
          <mxGeometry x="1280" y="87" width="170" height="40" as="geometry" />
        </mxCell>
        <mxCell id="QBSZ2mpLJ4u34UwG9ziR-62" value="MessageAlert.jsx" style="rounded=1;whiteSpace=wrap;html=1;fillColor=#fff2cc;strokeColor=#d6b656;fontStyle=1;fontFamily=Poppins;fontSource=https%3A%2F%2Ffonts.googleapis.com%2Fcss%3Ffamily%3DPoppins;" parent="1" vertex="1">
          <mxGeometry x="1280" y="138.5" width="170" height="40" as="geometry" />
        </mxCell>
        <mxCell id="QBSZ2mpLJ4u34UwG9ziR-63" value="ProtectedRoute.jsx" style="rounded=1;whiteSpace=wrap;html=1;fillColor=#fff2cc;strokeColor=#d6b656;fontStyle=1;fontFamily=Poppins;fontSource=https%3A%2F%2Ffonts.googleapis.com%2Fcss%3Ffamily%3DPoppins;" parent="1" vertex="1">
          <mxGeometry x="1280" y="240" width="170" height="40" as="geometry" />
        </mxCell>
        <mxCell id="QBSZ2mpLJ4u34UwG9ziR-64" value="RequestContext.jsx" style="rounded=1;whiteSpace=wrap;html=1;fillColor=#fff2cc;strokeColor=#d6b656;fontStyle=1;fontFamily=Poppins;fontSource=https%3A%2F%2Ffonts.googleapis.com%2Fcss%3Ffamily%3DPoppins;" parent="1" vertex="1">
          <mxGeometry x="1280" y="293" width="170" height="40" as="geometry" />
        </mxCell>
        <mxCell id="QBSZ2mpLJ4u34UwG9ziR-65" value="RequiredField.jsx" style="rounded=1;whiteSpace=wrap;html=1;fillColor=#fff2cc;strokeColor=#d6b656;fontStyle=1;fontFamily=Poppins;fontSource=https%3A%2F%2Ffonts.googleapis.com%2Fcss%3Ffamily%3DPoppins;" parent="1" vertex="1">
          <mxGeometry x="1280" y="391" width="170" height="40" as="geometry" />
        </mxCell>
        <mxCell id="QBSZ2mpLJ4u34UwG9ziR-66" value="" style="endArrow=classic;html=1;rounded=0;exitX=1;exitY=0.5;exitDx=0;exitDy=0;edgeStyle=orthogonalEdgeStyle;entryX=0;entryY=0.5;entryDx=0;entryDy=0;" parent="1" source="QBSZ2mpLJ4u34UwG9ziR-20" target="QBSZ2mpLJ4u34UwG9ziR-65" edge="1">
          <mxGeometry width="50" height="50" relative="1" as="geometry">
            <mxPoint x="1140" y="90" as="sourcePoint" />
            <mxPoint x="1270" y="410" as="targetPoint" />
            <Array as="points" />
          </mxGeometry>
        </mxCell>
        <mxCell id="QBSZ2mpLJ4u34UwG9ziR-67" value="" style="endArrow=classic;html=1;rounded=0;exitX=1;exitY=0.5;exitDx=0;exitDy=0;entryX=0;entryY=0.5;entryDx=0;entryDy=0;edgeStyle=orthogonalEdgeStyle;" parent="1" source="QBSZ2mpLJ4u34UwG9ziR-20" target="QBSZ2mpLJ4u34UwG9ziR-64" edge="1">
          <mxGeometry width="50" height="50" relative="1" as="geometry">
            <mxPoint x="1140" y="180" as="sourcePoint" />
            <mxPoint x="1190" y="130" as="targetPoint" />
            <Array as="points">
              <mxPoint x="1220" y="411" />
              <mxPoint x="1220" y="313" />
            </Array>
          </mxGeometry>
        </mxCell>
        <mxCell id="QBSZ2mpLJ4u34UwG9ziR-68" value="" style="endArrow=classic;html=1;rounded=0;exitX=1;exitY=0.5;exitDx=0;exitDy=0;entryX=0;entryY=0.5;entryDx=0;entryDy=0;edgeStyle=orthogonalEdgeStyle;" parent="1" source="QBSZ2mpLJ4u34UwG9ziR-20" target="QBSZ2mpLJ4u34UwG9ziR-63" edge="1">
          <mxGeometry width="50" height="50" relative="1" as="geometry">
            <mxPoint x="1140" y="190" as="sourcePoint" />
            <mxPoint x="1190" y="140" as="targetPoint" />
            <Array as="points">
              <mxPoint x="1220" y="411" />
              <mxPoint x="1220" y="260" />
            </Array>
          </mxGeometry>
        </mxCell>
        <mxCell id="QBSZ2mpLJ4u34UwG9ziR-69" value="" style="endArrow=classic;html=1;rounded=0;exitX=1;exitY=0.5;exitDx=0;exitDy=0;entryX=0;entryY=0.5;entryDx=0;entryDy=0;edgeStyle=orthogonalEdgeStyle;" parent="1" source="QBSZ2mpLJ4u34UwG9ziR-20" target="QBSZ2mpLJ4u34UwG9ziR-62" edge="1">
          <mxGeometry width="50" height="50" relative="1" as="geometry">
            <mxPoint x="1140" y="190" as="sourcePoint" />
            <mxPoint x="1190" y="140" as="targetPoint" />
            <Array as="points">
              <mxPoint x="1220" y="411" />
              <mxPoint x="1220" y="159" />
              <mxPoint x="1280" y="159" />
            </Array>
          </mxGeometry>
        </mxCell>
        <mxCell id="QBSZ2mpLJ4u34UwG9ziR-70" value="" style="endArrow=classic;html=1;rounded=0;exitX=1;exitY=0.5;exitDx=0;exitDy=0;entryX=0;entryY=0.5;entryDx=0;entryDy=0;edgeStyle=orthogonalEdgeStyle;" parent="1" source="QBSZ2mpLJ4u34UwG9ziR-20" target="QBSZ2mpLJ4u34UwG9ziR-61" edge="1">
          <mxGeometry width="50" height="50" relative="1" as="geometry">
            <mxPoint x="1140" y="190" as="sourcePoint" />
            <mxPoint x="1190" y="140" as="targetPoint" />
            <Array as="points">
              <mxPoint x="1220" y="411" />
              <mxPoint x="1220" y="107" />
            </Array>
          </mxGeometry>
        </mxCell>
        <mxCell id="QBSZ2mpLJ4u34UwG9ziR-71" value="" style="endArrow=classic;html=1;rounded=0;exitX=1;exitY=0.5;exitDx=0;exitDy=0;entryX=0;entryY=0.5;entryDx=0;entryDy=0;edgeStyle=orthogonalEdgeStyle;" parent="1" source="QBSZ2mpLJ4u34UwG9ziR-20" target="QBSZ2mpLJ4u34UwG9ziR-60" edge="1">
          <mxGeometry width="50" height="50" relative="1" as="geometry">
            <mxPoint x="1140" y="190" as="sourcePoint" />
            <mxPoint x="1190" y="140" as="targetPoint" />
            <Array as="points">
              <mxPoint x="1220" y="411" />
              <mxPoint x="1220" y="56" />
            </Array>
          </mxGeometry>
        </mxCell>
        <mxCell id="QBSZ2mpLJ4u34UwG9ziR-72" value="" style="endArrow=classic;html=1;rounded=0;exitX=1;exitY=0.5;exitDx=0;exitDy=0;entryX=0;entryY=0.5;entryDx=0;entryDy=0;edgeStyle=orthogonalEdgeStyle;" parent="1" source="QBSZ2mpLJ4u34UwG9ziR-20" target="QBSZ2mpLJ4u34UwG9ziR-59" edge="1">
          <mxGeometry width="50" height="50" relative="1" as="geometry">
            <mxPoint x="1140" y="90" as="sourcePoint" />
            <mxPoint x="1190" y="40" as="targetPoint" />
            <Array as="points">
              <mxPoint x="1220" y="411" />
              <mxPoint x="1220" y="4" />
            </Array>
          </mxGeometry>
        </mxCell>
        <mxCell id="QBSZ2mpLJ4u34UwG9ziR-73" value="" style="endArrow=classic;html=1;rounded=0;exitX=1;exitY=0.5;exitDx=0;exitDy=0;entryX=0;entryY=0.5;entryDx=0;entryDy=0;edgeStyle=orthogonalEdgeStyle;" parent="1" source="QBSZ2mpLJ4u34UwG9ziR-20" target="QBSZ2mpLJ4u34UwG9ziR-58" edge="1">
          <mxGeometry width="50" height="50" relative="1" as="geometry">
            <mxPoint x="1140" y="90" as="sourcePoint" />
            <mxPoint x="1190" y="40" as="targetPoint" />
            <Array as="points">
              <mxPoint x="1220" y="411" />
              <mxPoint x="1220" y="-48" />
            </Array>
          </mxGeometry>
        </mxCell>
        <mxCell id="QBSZ2mpLJ4u34UwG9ziR-74" value="" style="endArrow=classic;html=1;rounded=0;exitX=1;exitY=0.5;exitDx=0;exitDy=0;entryX=0;entryY=0.5;entryDx=0;entryDy=0;edgeStyle=orthogonalEdgeStyle;" parent="1" source="QBSZ2mpLJ4u34UwG9ziR-20" target="QBSZ2mpLJ4u34UwG9ziR-57" edge="1">
          <mxGeometry width="50" height="50" relative="1" as="geometry">
            <mxPoint x="1140" y="90" as="sourcePoint" />
            <mxPoint x="1190" y="40" as="targetPoint" />
            <Array as="points">
              <mxPoint x="1220" y="411" />
              <mxPoint x="1220" y="-100" />
            </Array>
          </mxGeometry>
        </mxCell>
        <mxCell id="QBSZ2mpLJ4u34UwG9ziR-75" value="" style="endArrow=classic;html=1;rounded=0;exitX=1;exitY=0.5;exitDx=0;exitDy=0;entryX=0;entryY=0.5;entryDx=0;entryDy=0;edgeStyle=orthogonalEdgeStyle;" parent="1" source="QBSZ2mpLJ4u34UwG9ziR-20" target="QBSZ2mpLJ4u34UwG9ziR-56" edge="1">
          <mxGeometry width="50" height="50" relative="1" as="geometry">
            <mxPoint x="1140" y="90" as="sourcePoint" />
            <mxPoint x="1190" y="40" as="targetPoint" />
            <Array as="points">
              <mxPoint x="1220" y="411" />
              <mxPoint x="1220" y="-150" />
              <mxPoint x="1280" y="-150" />
            </Array>
          </mxGeometry>
        </mxCell>
        <mxCell id="QBSZ2mpLJ4u34UwG9ziR-76" value="" style="endArrow=classic;html=1;rounded=0;exitX=1;exitY=0.5;exitDx=0;exitDy=0;entryX=0;entryY=0.5;entryDx=0;entryDy=0;edgeStyle=orthogonalEdgeStyle;" parent="1" source="QBSZ2mpLJ4u34UwG9ziR-20" target="QBSZ2mpLJ4u34UwG9ziR-55" edge="1">
          <mxGeometry width="50" height="50" relative="1" as="geometry">
            <mxPoint x="1140" y="90" as="sourcePoint" />
            <mxPoint x="1190" y="40" as="targetPoint" />
            <Array as="points">
              <mxPoint x="1220" y="411" />
              <mxPoint x="1220" y="-202" />
            </Array>
          </mxGeometry>
        </mxCell>
        <mxCell id="QBSZ2mpLJ4u34UwG9ziR-77" value="" style="endArrow=classic;html=1;rounded=0;exitX=1;exitY=0.5;exitDx=0;exitDy=0;entryX=0;entryY=0.5;entryDx=0;entryDy=0;edgeStyle=orthogonalEdgeStyle;" parent="1" source="QBSZ2mpLJ4u34UwG9ziR-20" target="QBSZ2mpLJ4u34UwG9ziR-54" edge="1">
          <mxGeometry width="50" height="50" relative="1" as="geometry">
            <mxPoint x="1140" y="-10" as="sourcePoint" />
            <mxPoint x="1190" y="-60" as="targetPoint" />
            <Array as="points">
              <mxPoint x="1220" y="411" />
              <mxPoint x="1220" y="-254" />
            </Array>
          </mxGeometry>
        </mxCell>
        <mxCell id="QBSZ2mpLJ4u34UwG9ziR-78" value="logoTL.png" style="rounded=1;whiteSpace=wrap;html=1;fillColor=#fff2cc;strokeColor=#d6b656;fontStyle=1;fontFamily=Poppins;fontSource=https%3A%2F%2Ffonts.googleapis.com%2Fcss%3Ffamily%3DPoppins;" parent="1" vertex="1">
          <mxGeometry x="1010" y="442" width="170" height="40" as="geometry" />
        </mxCell>
        <mxCell id="QBSZ2mpLJ4u34UwG9ziR-79" value="" style="endArrow=classic;html=1;rounded=0;exitX=1;exitY=0.5;exitDx=0;exitDy=0;entryX=0;entryY=0.5;entryDx=0;entryDy=0;" parent="1" source="QBSZ2mpLJ4u34UwG9ziR-21" target="QBSZ2mpLJ4u34UwG9ziR-78" edge="1">
          <mxGeometry width="50" height="50" relative="1" as="geometry">
            <mxPoint x="1060" y="470" as="sourcePoint" />
            <mxPoint x="1110" y="420" as="targetPoint" />
          </mxGeometry>
        </mxCell>
        <mxCell id="QBSZ2mpLJ4u34UwG9ziR-80" value="controladores" style="rounded=1;whiteSpace=wrap;html=1;fontFamily=Poppins;fontSource=https%3A%2F%2Ffonts.googleapis.com%2Fcss%3Ffamily%3DPoppins;fontStyle=1;fontSize=12;fillColor=#b1ddf0;strokeColor=#10739e;" parent="1" vertex="1">
          <mxGeometry x="1280" y="492" width="170" height="40" as="geometry" />
        </mxCell>
        <mxCell id="QBSZ2mpLJ4u34UwG9ziR-81" value="historial" style="rounded=1;whiteSpace=wrap;html=1;fontFamily=Poppins;fontSource=https%3A%2F%2Ffonts.googleapis.com%2Fcss%3Ffamily%3DPoppins;fontStyle=1;fontSize=12;fillColor=#b1ddf0;strokeColor=#10739e;" parent="1" vertex="1">
          <mxGeometry x="1280" y="543" width="170" height="40" as="geometry" />
        </mxCell>
        <mxCell id="QBSZ2mpLJ4u34UwG9ziR-82" value="logueo" style="rounded=1;whiteSpace=wrap;html=1;fontFamily=Poppins;fontSource=https%3A%2F%2Ffonts.googleapis.com%2Fcss%3Ffamily%3DPoppins;fontStyle=1;fontSize=12;fillColor=#b1ddf0;strokeColor=#10739e;" parent="1" vertex="1">
          <mxGeometry x="1280" y="595" width="170" height="40" as="geometry" />
        </mxCell>
        <mxCell id="QBSZ2mpLJ4u34UwG9ziR-83" value="manual" style="rounded=1;whiteSpace=wrap;html=1;fontFamily=Poppins;fontSource=https%3A%2F%2Ffonts.googleapis.com%2Fcss%3Ffamily%3DPoppins;fontStyle=1;fontSize=12;fillColor=#b1ddf0;strokeColor=#10739e;" parent="1" vertex="1">
          <mxGeometry x="1280" y="647" width="170" height="40" as="geometry" />
        </mxCell>
        <mxCell id="QBSZ2mpLJ4u34UwG9ziR-84" value="monitoreo" style="rounded=1;whiteSpace=wrap;html=1;fontFamily=Poppins;fontSource=https%3A%2F%2Ffonts.googleapis.com%2Fcss%3Ffamily%3DPoppins;fontStyle=1;fontSize=12;fillColor=#b1ddf0;strokeColor=#10739e;" parent="1" vertex="1">
          <mxGeometry x="1280" y="699" width="170" height="40" as="geometry" />
        </mxCell>
        <mxCell id="QBSZ2mpLJ4u34UwG9ziR-85" value="operacion" style="rounded=1;whiteSpace=wrap;html=1;fontFamily=Poppins;fontSource=https%3A%2F%2Ffonts.googleapis.com%2Fcss%3Ffamily%3DPoppins;fontStyle=1;fontSize=12;fillColor=#b1ddf0;strokeColor=#10739e;" parent="1" vertex="1">
          <mxGeometry x="1280" y="751" width="170" height="40" as="geometry" />
        </mxCell>
        <mxCell id="QBSZ2mpLJ4u34UwG9ziR-86" value="programacion" style="rounded=1;whiteSpace=wrap;html=1;fontFamily=Poppins;fontSource=https%3A%2F%2Ffonts.googleapis.com%2Fcss%3Ffamily%3DPoppins;fontStyle=1;fontSize=12;fillColor=#b1ddf0;strokeColor=#10739e;" parent="1" vertex="1">
          <mxGeometry x="1280" y="803" width="170" height="40" as="geometry" />
        </mxCell>
        <mxCell id="QBSZ2mpLJ4u34UwG9ziR-87" value="reportes" style="rounded=1;whiteSpace=wrap;html=1;fontFamily=Poppins;fontSource=https%3A%2F%2Ffonts.googleapis.com%2Fcss%3Ffamily%3DPoppins;fontStyle=1;fontSize=12;fillColor=#b1ddf0;strokeColor=#10739e;" parent="1" vertex="1">
          <mxGeometry x="1280" y="855" width="170" height="40" as="geometry" />
        </mxCell>
        <mxCell id="QBSZ2mpLJ4u34UwG9ziR-88" value="simulador" style="rounded=1;whiteSpace=wrap;html=1;fontFamily=Poppins;fontSource=https%3A%2F%2Ffonts.googleapis.com%2Fcss%3Ffamily%3DPoppins;fontStyle=1;fontSize=12;fillColor=#b1ddf0;strokeColor=#10739e;" parent="1" vertex="1">
          <mxGeometry x="1280" y="908" width="170" height="40" as="geometry" />
        </mxCell>
        <mxCell id="QBSZ2mpLJ4u34UwG9ziR-98" value="" style="endArrow=classic;html=1;rounded=0;exitX=1;exitY=0.5;exitDx=0;exitDy=0;entryX=0;entryY=0.5;entryDx=0;entryDy=0;" parent="1" source="QBSZ2mpLJ4u34UwG9ziR-22" target="QBSZ2mpLJ4u34UwG9ziR-80" edge="1">
          <mxGeometry width="50" height="50" relative="1" as="geometry">
            <mxPoint x="1060" y="560" as="sourcePoint" />
            <mxPoint x="1110" y="510" as="targetPoint" />
          </mxGeometry>
        </mxCell>
        <mxCell id="QBSZ2mpLJ4u34UwG9ziR-99" value="" style="endArrow=classic;html=1;rounded=0;exitX=1;exitY=0.5;exitDx=0;exitDy=0;entryX=0;entryY=0.5;entryDx=0;entryDy=0;edgeStyle=orthogonalEdgeStyle;" parent="1" source="QBSZ2mpLJ4u34UwG9ziR-22" target="QBSZ2mpLJ4u34UwG9ziR-81" edge="1">
          <mxGeometry width="50" height="50" relative="1" as="geometry">
            <mxPoint x="1060" y="560" as="sourcePoint" />
            <mxPoint x="1110" y="510" as="targetPoint" />
          </mxGeometry>
        </mxCell>
        <mxCell id="QBSZ2mpLJ4u34UwG9ziR-100" value="" style="endArrow=classic;html=1;rounded=0;exitX=1;exitY=0.5;exitDx=0;exitDy=0;entryX=0;entryY=0.5;entryDx=0;entryDy=0;edgeStyle=orthogonalEdgeStyle;" parent="1" source="QBSZ2mpLJ4u34UwG9ziR-22" target="QBSZ2mpLJ4u34UwG9ziR-82" edge="1">
          <mxGeometry width="50" height="50" relative="1" as="geometry">
            <mxPoint x="1060" y="560" as="sourcePoint" />
            <mxPoint x="1110" y="510" as="targetPoint" />
          </mxGeometry>
        </mxCell>
        <mxCell id="QBSZ2mpLJ4u34UwG9ziR-101" value="" style="endArrow=classic;html=1;rounded=0;exitX=1;exitY=0.5;exitDx=0;exitDy=0;entryX=0;entryY=0.5;entryDx=0;entryDy=0;edgeStyle=orthogonalEdgeStyle;" parent="1" source="QBSZ2mpLJ4u34UwG9ziR-22" target="QBSZ2mpLJ4u34UwG9ziR-83" edge="1">
          <mxGeometry width="50" height="50" relative="1" as="geometry">
            <mxPoint x="1060" y="560" as="sourcePoint" />
            <mxPoint x="1110" y="510" as="targetPoint" />
          </mxGeometry>
        </mxCell>
        <mxCell id="QBSZ2mpLJ4u34UwG9ziR-102" value="" style="endArrow=classic;html=1;rounded=0;exitX=1;exitY=0.5;exitDx=0;exitDy=0;entryX=0;entryY=0.5;entryDx=0;entryDy=0;edgeStyle=orthogonalEdgeStyle;" parent="1" source="QBSZ2mpLJ4u34UwG9ziR-22" target="QBSZ2mpLJ4u34UwG9ziR-84" edge="1">
          <mxGeometry width="50" height="50" relative="1" as="geometry">
            <mxPoint x="1060" y="560" as="sourcePoint" />
            <mxPoint x="1110" y="510" as="targetPoint" />
          </mxGeometry>
        </mxCell>
        <mxCell id="QBSZ2mpLJ4u34UwG9ziR-103" value="" style="endArrow=classic;html=1;rounded=0;exitX=1;exitY=0.5;exitDx=0;exitDy=0;entryX=0;entryY=0.5;entryDx=0;entryDy=0;edgeStyle=orthogonalEdgeStyle;" parent="1" source="QBSZ2mpLJ4u34UwG9ziR-22" target="QBSZ2mpLJ4u34UwG9ziR-85" edge="1">
          <mxGeometry width="50" height="50" relative="1" as="geometry">
            <mxPoint x="1060" y="560" as="sourcePoint" />
            <mxPoint x="1110" y="510" as="targetPoint" />
          </mxGeometry>
        </mxCell>
        <mxCell id="QBSZ2mpLJ4u34UwG9ziR-104" value="" style="endArrow=classic;html=1;rounded=0;exitX=1;exitY=0.5;exitDx=0;exitDy=0;entryX=0;entryY=0.5;entryDx=0;entryDy=0;edgeStyle=orthogonalEdgeStyle;" parent="1" source="QBSZ2mpLJ4u34UwG9ziR-22" target="QBSZ2mpLJ4u34UwG9ziR-86" edge="1">
          <mxGeometry width="50" height="50" relative="1" as="geometry">
            <mxPoint x="1060" y="660" as="sourcePoint" />
            <mxPoint x="1110" y="610" as="targetPoint" />
          </mxGeometry>
        </mxCell>
        <mxCell id="QBSZ2mpLJ4u34UwG9ziR-105" value="" style="endArrow=classic;html=1;rounded=0;exitX=1;exitY=0.5;exitDx=0;exitDy=0;entryX=0;entryY=0.5;entryDx=0;entryDy=0;edgeStyle=orthogonalEdgeStyle;" parent="1" source="QBSZ2mpLJ4u34UwG9ziR-22" target="QBSZ2mpLJ4u34UwG9ziR-87" edge="1">
          <mxGeometry width="50" height="50" relative="1" as="geometry">
            <mxPoint x="1060" y="660" as="sourcePoint" />
            <mxPoint x="1110" y="610" as="targetPoint" />
          </mxGeometry>
        </mxCell>
        <mxCell id="QBSZ2mpLJ4u34UwG9ziR-106" value="" style="endArrow=classic;html=1;rounded=0;exitX=1;exitY=0.5;exitDx=0;exitDy=0;entryX=0;entryY=0.5;entryDx=0;entryDy=0;edgeStyle=orthogonalEdgeStyle;" parent="1" source="QBSZ2mpLJ4u34UwG9ziR-22" target="QBSZ2mpLJ4u34UwG9ziR-88" edge="1">
          <mxGeometry width="50" height="50" relative="1" as="geometry">
            <mxPoint x="1060" y="660" as="sourcePoint" />
            <mxPoint x="1110" y="610" as="targetPoint" />
          </mxGeometry>
        </mxCell>
        <mxCell id="QBSZ2mpLJ4u34UwG9ziR-132" value="Controladores.css" style="rounded=1;whiteSpace=wrap;html=1;fillColor=#fff2cc;strokeColor=#d6b656;fontStyle=1;fontFamily=Poppins;fontSource=https%3A%2F%2Ffonts.googleapis.com%2Fcss%3Ffamily%3DPoppins;" parent="1" vertex="1">
          <mxGeometry x="1570" y="294" width="170" height="40" as="geometry" />
        </mxCell>
        <mxCell id="QBSZ2mpLJ4u34UwG9ziR-133" value="Controladores.jsx" style="rounded=1;whiteSpace=wrap;html=1;fillColor=#fff2cc;strokeColor=#d6b656;fontStyle=1;fontFamily=Poppins;fontSource=https%3A%2F%2Ffonts.googleapis.com%2Fcss%3Ffamily%3DPoppins;" parent="1" vertex="1">
          <mxGeometry x="1570" y="345" width="170" height="40" as="geometry" />
        </mxCell>
        <mxCell id="_I3Acwl3Vb4N00rprZtQ-2" value="archivos" style="rounded=1;whiteSpace=wrap;html=1;fontFamily=Poppins;fontSource=https%3A%2F%2Ffonts.googleapis.com%2Fcss%3Ffamily%3DPoppins;fontStyle=1;fontSize=12;fillColor=#b1ddf0;strokeColor=#10739e;" vertex="1" parent="1">
          <mxGeometry x="790" y="103" width="170" height="40" as="geometry" />
        </mxCell>
        <mxCell id="_I3Acwl3Vb4N00rprZtQ-3" value="fuentes" style="rounded=1;whiteSpace=wrap;html=1;fontFamily=Poppins;fontSource=https%3A%2F%2Ffonts.googleapis.com%2Fcss%3Ffamily%3DPoppins;fontStyle=1;fontSize=12;fillColor=#b1ddf0;strokeColor=#10739e;" vertex="1" parent="1">
          <mxGeometry x="790" y="153" width="170" height="40" as="geometry" />
        </mxCell>
        <mxCell id="_I3Acwl3Vb4N00rprZtQ-4" value="" style="endArrow=classic;html=1;rounded=0;exitX=1;exitY=0.5;exitDx=0;exitDy=0;entryX=0;entryY=0.5;entryDx=0;entryDy=0;edgeStyle=orthogonalEdgeStyle;" edge="1" parent="1" source="QBSZ2mpLJ4u34UwG9ziR-5" target="_I3Acwl3Vb4N00rprZtQ-3">
          <mxGeometry width="50" height="50" relative="1" as="geometry">
            <mxPoint x="920" y="230" as="sourcePoint" />
            <mxPoint x="970" y="180" as="targetPoint" />
          </mxGeometry>
        </mxCell>
        <mxCell id="_I3Acwl3Vb4N00rprZtQ-5" value="" style="endArrow=classic;html=1;rounded=0;exitX=1;exitY=0.5;exitDx=0;exitDy=0;entryX=0;entryY=0.5;entryDx=0;entryDy=0;edgeStyle=orthogonalEdgeStyle;" edge="1" parent="1" source="QBSZ2mpLJ4u34UwG9ziR-5" target="_I3Acwl3Vb4N00rprZtQ-2">
          <mxGeometry width="50" height="50" relative="1" as="geometry">
            <mxPoint x="920" y="230" as="sourcePoint" />
            <mxPoint x="970" y="180" as="targetPoint" />
          </mxGeometry>
        </mxCell>
        <mxCell id="_I3Acwl3Vb4N00rprZtQ-7" value="APIs" style="rounded=1;whiteSpace=wrap;html=1;fontFamily=Poppins;fontSource=https%3A%2F%2Ffonts.googleapis.com%2Fcss%3Ffamily%3DPoppins;fontStyle=1;fontSize=12;fillColor=#b1ddf0;strokeColor=#10739e;" vertex="1" parent="1">
          <mxGeometry x="790" y="263" width="170" height="40" as="geometry" />
        </mxCell>
        <mxCell id="_I3Acwl3Vb4N00rprZtQ-8" value="" style="endArrow=classic;html=1;rounded=0;exitX=1;exitY=0.5;exitDx=0;exitDy=0;entryX=0;entryY=0.5;entryDx=0;entryDy=0;" edge="1" parent="1" source="QBSZ2mpLJ4u34UwG9ziR-6" target="_I3Acwl3Vb4N00rprZtQ-7">
          <mxGeometry width="50" height="50" relative="1" as="geometry">
            <mxPoint x="920" y="390" as="sourcePoint" />
            <mxPoint x="970" y="340" as="targetPoint" />
          </mxGeometry>
        </mxCell>
        <mxCell id="_I3Acwl3Vb4N00rprZtQ-9" value="Guia-Instalacion-Centurion.pdf" style="rounded=1;whiteSpace=wrap;html=1;fillColor=#fff2cc;strokeColor=#d6b656;fontStyle=1;fontFamily=Poppins;fontSource=https%3A%2F%2Ffonts.googleapis.com%2Fcss%3Ffamily%3DPoppins;" vertex="1" parent="1">
          <mxGeometry x="1010" y="103" width="170" height="40" as="geometry" />
        </mxCell>
        <mxCell id="_I3Acwl3Vb4N00rprZtQ-10" value="" style="endArrow=classic;html=1;rounded=0;entryX=0;entryY=0.5;entryDx=0;entryDy=0;" edge="1" parent="1" source="_I3Acwl3Vb4N00rprZtQ-2" target="_I3Acwl3Vb4N00rprZtQ-9">
          <mxGeometry width="50" height="50" relative="1" as="geometry">
            <mxPoint x="920" y="210" as="sourcePoint" />
            <mxPoint x="970" y="160" as="targetPoint" />
          </mxGeometry>
        </mxCell>
        <mxCell id="_I3Acwl3Vb4N00rprZtQ-12" value="Bebas_Neue" style="rounded=1;whiteSpace=wrap;html=1;fontFamily=Poppins;fontSource=https%3A%2F%2Ffonts.googleapis.com%2Fcss%3Ffamily%3DPoppins;fontStyle=1;fontSize=12;fillColor=#b1ddf0;strokeColor=#10739e;" vertex="1" parent="1">
          <mxGeometry x="1010" y="153" width="170" height="40" as="geometry" />
        </mxCell>
        <mxCell id="_I3Acwl3Vb4N00rprZtQ-13" value="Poppins" style="rounded=1;whiteSpace=wrap;html=1;fontFamily=Poppins;fontSource=https%3A%2F%2Ffonts.googleapis.com%2Fcss%3Ffamily%3DPoppins;fontStyle=1;fontSize=12;fillColor=#b1ddf0;strokeColor=#10739e;" vertex="1" parent="1">
          <mxGeometry x="1010" y="203" width="170" height="40" as="geometry" />
        </mxCell>
        <mxCell id="_I3Acwl3Vb4N00rprZtQ-14" value="" style="endArrow=classic;html=1;rounded=0;entryX=0;entryY=0.5;entryDx=0;entryDy=0;exitX=1;exitY=0.5;exitDx=0;exitDy=0;" edge="1" parent="1" source="_I3Acwl3Vb4N00rprZtQ-3" target="_I3Acwl3Vb4N00rprZtQ-12">
          <mxGeometry width="50" height="50" relative="1" as="geometry">
            <mxPoint x="920" y="210" as="sourcePoint" />
            <mxPoint x="970" y="160" as="targetPoint" />
          </mxGeometry>
        </mxCell>
        <mxCell id="_I3Acwl3Vb4N00rprZtQ-15" value="" style="endArrow=classic;html=1;rounded=0;entryX=0;entryY=0.5;entryDx=0;entryDy=0;exitX=1;exitY=0.5;exitDx=0;exitDy=0;edgeStyle=orthogonalEdgeStyle;" edge="1" parent="1" source="_I3Acwl3Vb4N00rprZtQ-3" target="_I3Acwl3Vb4N00rprZtQ-13">
          <mxGeometry width="50" height="50" relative="1" as="geometry">
            <mxPoint x="920" y="210" as="sourcePoint" />
            <mxPoint x="970" y="160" as="targetPoint" />
          </mxGeometry>
        </mxCell>
        <mxCell id="_I3Acwl3Vb4N00rprZtQ-16" value="Monitoreo.json" style="rounded=1;whiteSpace=wrap;html=1;fillColor=#fff2cc;strokeColor=#d6b656;fontStyle=1;fontFamily=Poppins;fontSource=https%3A%2F%2Ffonts.googleapis.com%2Fcss%3Ffamily%3DPoppins;" vertex="1" parent="1">
          <mxGeometry x="1010" y="263" width="170" height="40" as="geometry" />
        </mxCell>
        <mxCell id="_I3Acwl3Vb4N00rprZtQ-17" value="Ubicaciones.json" style="rounded=1;whiteSpace=wrap;html=1;fillColor=#fff2cc;strokeColor=#d6b656;fontStyle=1;fontFamily=Poppins;fontSource=https%3A%2F%2Ffonts.googleapis.com%2Fcss%3Ffamily%3DPoppins;" vertex="1" parent="1">
          <mxGeometry x="1010" y="315" width="170" height="40" as="geometry" />
        </mxCell>
        <mxCell id="_I3Acwl3Vb4N00rprZtQ-18" value="" style="endArrow=classic;html=1;rounded=0;entryX=0;entryY=0.5;entryDx=0;entryDy=0;exitX=1;exitY=0.5;exitDx=0;exitDy=0;" edge="1" parent="1" source="_I3Acwl3Vb4N00rprZtQ-7" target="_I3Acwl3Vb4N00rprZtQ-16">
          <mxGeometry width="50" height="50" relative="1" as="geometry">
            <mxPoint x="920" y="340" as="sourcePoint" />
            <mxPoint x="970" y="290" as="targetPoint" />
          </mxGeometry>
        </mxCell>
        <mxCell id="_I3Acwl3Vb4N00rprZtQ-19" value="" style="endArrow=classic;html=1;rounded=0;entryX=0;entryY=0.5;entryDx=0;entryDy=0;exitX=1;exitY=0.5;exitDx=0;exitDy=0;edgeStyle=orthogonalEdgeStyle;" edge="1" parent="1" source="_I3Acwl3Vb4N00rprZtQ-7" target="_I3Acwl3Vb4N00rprZtQ-17">
          <mxGeometry width="50" height="50" relative="1" as="geometry">
            <mxPoint x="920" y="340" as="sourcePoint" />
            <mxPoint x="970" y="290" as="targetPoint" />
          </mxGeometry>
        </mxCell>
        <mxCell id="_I3Acwl3Vb4N00rprZtQ-20" value="Theme.jsx" style="rounded=1;whiteSpace=wrap;html=1;fillColor=#fff2cc;strokeColor=#d6b656;fontStyle=1;fontFamily=Poppins;fontSource=https%3A%2F%2Ffonts.googleapis.com%2Fcss%3Ffamily%3DPoppins;" vertex="1" parent="1">
          <mxGeometry x="1280" y="342" width="170" height="40" as="geometry" />
        </mxCell>
        <mxCell id="_I3Acwl3Vb4N00rprZtQ-21" value="MQTTContext.js" style="rounded=1;whiteSpace=wrap;html=1;fillColor=#fff2cc;strokeColor=#d6b656;fontStyle=1;fontFamily=Poppins;fontSource=https%3A%2F%2Ffonts.googleapis.com%2Fcss%3Ffamily%3DPoppins;" vertex="1" parent="1">
          <mxGeometry x="1280" y="190.5" width="170" height="40" as="geometry" />
        </mxCell>
        <mxCell id="_I3Acwl3Vb4N00rprZtQ-22" value="" style="endArrow=classic;html=1;rounded=0;exitX=1;exitY=0.5;exitDx=0;exitDy=0;entryX=0;entryY=0.5;entryDx=0;entryDy=0;edgeStyle=orthogonalEdgeStyle;" edge="1" parent="1" source="QBSZ2mpLJ4u34UwG9ziR-20" target="_I3Acwl3Vb4N00rprZtQ-20">
          <mxGeometry width="50" height="50" relative="1" as="geometry">
            <mxPoint x="1460" y="250" as="sourcePoint" />
            <mxPoint x="1510" y="200" as="targetPoint" />
            <Array as="points">
              <mxPoint x="1220" y="411" />
              <mxPoint x="1220" y="362" />
            </Array>
          </mxGeometry>
        </mxCell>
        <mxCell id="_I3Acwl3Vb4N00rprZtQ-23" value="" style="endArrow=classic;html=1;rounded=0;exitX=1;exitY=0.5;exitDx=0;exitDy=0;entryX=0;entryY=0.5;entryDx=0;entryDy=0;edgeStyle=orthogonalEdgeStyle;" edge="1" parent="1" source="QBSZ2mpLJ4u34UwG9ziR-20" target="_I3Acwl3Vb4N00rprZtQ-21">
          <mxGeometry width="50" height="50" relative="1" as="geometry">
            <mxPoint x="1460" y="250" as="sourcePoint" />
            <mxPoint x="1510" y="200" as="targetPoint" />
            <Array as="points">
              <mxPoint x="1220" y="411" />
              <mxPoint x="1220" y="210" />
              <mxPoint x="1280" y="210" />
            </Array>
          </mxGeometry>
        </mxCell>
        <mxCell id="_I3Acwl3Vb4N00rprZtQ-26" value="Historial.css" style="rounded=1;whiteSpace=wrap;html=1;fillColor=#fff2cc;strokeColor=#d6b656;fontStyle=1;fontFamily=Poppins;fontSource=https%3A%2F%2Ffonts.googleapis.com%2Fcss%3Ffamily%3DPoppins;" vertex="1" parent="1">
          <mxGeometry x="1570" y="397" width="170" height="40" as="geometry" />
        </mxCell>
        <mxCell id="_I3Acwl3Vb4N00rprZtQ-27" value="Historial.jsx" style="rounded=1;whiteSpace=wrap;html=1;fillColor=#fff2cc;strokeColor=#d6b656;fontStyle=1;fontFamily=Poppins;fontSource=https%3A%2F%2Ffonts.googleapis.com%2Fcss%3Ffamily%3DPoppins;" vertex="1" parent="1">
          <mxGeometry x="1570" y="448" width="170" height="40" as="geometry" />
        </mxCell>
        <mxCell id="_I3Acwl3Vb4N00rprZtQ-28" value="Logueo.css" style="rounded=1;whiteSpace=wrap;html=1;fillColor=#fff2cc;strokeColor=#d6b656;fontStyle=1;fontFamily=Poppins;fontSource=https%3A%2F%2Ffonts.googleapis.com%2Fcss%3Ffamily%3DPoppins;" vertex="1" parent="1">
          <mxGeometry x="1570" y="499" width="170" height="40" as="geometry" />
        </mxCell>
        <mxCell id="_I3Acwl3Vb4N00rprZtQ-29" value="Logueo.jsx" style="rounded=1;whiteSpace=wrap;html=1;fillColor=#fff2cc;strokeColor=#d6b656;fontStyle=1;fontFamily=Poppins;fontSource=https%3A%2F%2Ffonts.googleapis.com%2Fcss%3Ffamily%3DPoppins;" vertex="1" parent="1">
          <mxGeometry x="1570" y="550" width="170" height="40" as="geometry" />
        </mxCell>
        <mxCell id="_I3Acwl3Vb4N00rprZtQ-30" value="Manual" style="rounded=1;whiteSpace=wrap;html=1;fillColor=#b1ddf0;strokeColor=#10739e;fontStyle=1;fontFamily=Poppins;fontSource=https%3A%2F%2Ffonts.googleapis.com%2Fcss%3Ffamily%3DPoppins;" vertex="1" parent="1">
          <mxGeometry x="1570" y="603" width="170" height="40" as="geometry" />
        </mxCell>
        <mxCell id="_I3Acwl3Vb4N00rprZtQ-31" value="VisorPDF.jsx" style="rounded=1;whiteSpace=wrap;html=1;fillColor=#fff2cc;strokeColor=#d6b656;fontStyle=1;fontFamily=Poppins;fontSource=https%3A%2F%2Ffonts.googleapis.com%2Fcss%3Ffamily%3DPoppins;" vertex="1" parent="1">
          <mxGeometry x="1570" y="654" width="170" height="40" as="geometry" />
        </mxCell>
        <mxCell id="_I3Acwl3Vb4N00rprZtQ-32" value="Monitoreo.css" style="rounded=1;whiteSpace=wrap;html=1;fillColor=#fff2cc;strokeColor=#d6b656;fontStyle=1;fontFamily=Poppins;fontSource=https%3A%2F%2Ffonts.googleapis.com%2Fcss%3Ffamily%3DPoppins;" vertex="1" parent="1">
          <mxGeometry x="1570" y="706" width="170" height="40" as="geometry" />
        </mxCell>
        <mxCell id="_I3Acwl3Vb4N00rprZtQ-33" value="Monitoreo.jsx" style="rounded=1;whiteSpace=wrap;html=1;fillColor=#fff2cc;strokeColor=#d6b656;fontStyle=1;fontFamily=Poppins;fontSource=https%3A%2F%2Ffonts.googleapis.com%2Fcss%3Ffamily%3DPoppins;" vertex="1" parent="1">
          <mxGeometry x="1570" y="757" width="170" height="40" as="geometry" />
        </mxCell>
        <mxCell id="_I3Acwl3Vb4N00rprZtQ-34" value="Operacion.jsx" style="rounded=1;whiteSpace=wrap;html=1;fillColor=#fff2cc;strokeColor=#d6b656;fontStyle=1;fontFamily=Poppins;fontSource=https%3A%2F%2Ffonts.googleapis.com%2Fcss%3Ffamily%3DPoppins;" vertex="1" parent="1">
          <mxGeometry x="1570" y="808" width="170" height="40" as="geometry" />
        </mxCell>
        <mxCell id="_I3Acwl3Vb4N00rprZtQ-36" value="CargaProgram.css" style="rounded=1;whiteSpace=wrap;html=1;fillColor=#fff2cc;strokeColor=#d6b656;fontStyle=1;fontFamily=Poppins;fontSource=https%3A%2F%2Ffonts.googleapis.com%2Fcss%3Ffamily%3DPoppins;" vertex="1" parent="1">
          <mxGeometry x="1570" y="858" width="170" height="40" as="geometry" />
        </mxCell>
        <mxCell id="_I3Acwl3Vb4N00rprZtQ-37" value="CargaProgram.jsx" style="rounded=1;whiteSpace=wrap;html=1;fillColor=#fff2cc;strokeColor=#d6b656;fontStyle=1;fontFamily=Poppins;fontSource=https%3A%2F%2Ffonts.googleapis.com%2Fcss%3Ffamily%3DPoppins;" vertex="1" parent="1">
          <mxGeometry x="1570" y="909" width="170" height="40" as="geometry" />
        </mxCell>
        <mxCell id="_I3Acwl3Vb4N00rprZtQ-38" value="Programacion_PDF.jsx" style="rounded=1;whiteSpace=wrap;html=1;fillColor=#fff2cc;strokeColor=#d6b656;fontStyle=1;fontFamily=Poppins;fontSource=https%3A%2F%2Ffonts.googleapis.com%2Fcss%3Ffamily%3DPoppins;" vertex="1" parent="1">
          <mxGeometry x="1570" y="962" width="170" height="40" as="geometry" />
        </mxCell>
        <mxCell id="_I3Acwl3Vb4N00rprZtQ-39" value="VisorPDF.jsx" style="rounded=1;whiteSpace=wrap;html=1;fillColor=#fff2cc;strokeColor=#d6b656;fontStyle=1;fontFamily=Poppins;fontSource=https%3A%2F%2Ffonts.googleapis.com%2Fcss%3Ffamily%3DPoppins;" vertex="1" parent="1">
          <mxGeometry x="1570" y="1013" width="170" height="40" as="geometry" />
        </mxCell>
        <mxCell id="_I3Acwl3Vb4N00rprZtQ-40" value="Simu.css" style="rounded=1;whiteSpace=wrap;html=1;fillColor=#fff2cc;strokeColor=#d6b656;fontStyle=1;fontFamily=Poppins;fontSource=https%3A%2F%2Ffonts.googleapis.com%2Fcss%3Ffamily%3DPoppins;" vertex="1" parent="1">
          <mxGeometry x="1570" y="1064" width="170" height="40" as="geometry" />
        </mxCell>
        <mxCell id="_I3Acwl3Vb4N00rprZtQ-41" value="Simu.jsx" style="rounded=1;whiteSpace=wrap;html=1;fillColor=#fff2cc;strokeColor=#d6b656;fontStyle=1;fontFamily=Poppins;fontSource=https%3A%2F%2Ffonts.googleapis.com%2Fcss%3Ffamily%3DPoppins;" vertex="1" parent="1">
          <mxGeometry x="1570" y="1115" width="170" height="40" as="geometry" />
        </mxCell>
        <mxCell id="_I3Acwl3Vb4N00rprZtQ-42" value="" style="endArrow=classic;html=1;rounded=0;entryX=0;entryY=0.5;entryDx=0;entryDy=0;exitX=1;exitY=0.5;exitDx=0;exitDy=0;edgeStyle=orthogonalEdgeStyle;" edge="1" parent="1" source="QBSZ2mpLJ4u34UwG9ziR-80" target="QBSZ2mpLJ4u34UwG9ziR-132">
          <mxGeometry width="50" height="50" relative="1" as="geometry">
            <mxPoint x="1210" y="600" as="sourcePoint" />
            <mxPoint x="1260" y="550" as="targetPoint" />
            <Array as="points">
              <mxPoint x="1480" y="512" />
              <mxPoint x="1480" y="314" />
            </Array>
          </mxGeometry>
        </mxCell>
        <mxCell id="_I3Acwl3Vb4N00rprZtQ-43" value="" style="endArrow=classic;html=1;rounded=0;entryX=0;entryY=0.5;entryDx=0;entryDy=0;exitX=1;exitY=0.5;exitDx=0;exitDy=0;edgeStyle=orthogonalEdgeStyle;" edge="1" parent="1" source="QBSZ2mpLJ4u34UwG9ziR-80" target="QBSZ2mpLJ4u34UwG9ziR-133">
          <mxGeometry width="50" height="50" relative="1" as="geometry">
            <mxPoint x="1210" y="600" as="sourcePoint" />
            <mxPoint x="1260" y="550" as="targetPoint" />
            <Array as="points">
              <mxPoint x="1480" y="512" />
              <mxPoint x="1480" y="365" />
            </Array>
          </mxGeometry>
        </mxCell>
        <mxCell id="_I3Acwl3Vb4N00rprZtQ-44" value="" style="endArrow=classic;html=1;rounded=0;entryX=0;entryY=0.5;entryDx=0;entryDy=0;exitX=1;exitY=0.5;exitDx=0;exitDy=0;edgeStyle=orthogonalEdgeStyle;" edge="1" parent="1" source="QBSZ2mpLJ4u34UwG9ziR-81" target="_I3Acwl3Vb4N00rprZtQ-26">
          <mxGeometry width="50" height="50" relative="1" as="geometry">
            <mxPoint x="1210" y="600" as="sourcePoint" />
            <mxPoint x="1260" y="550" as="targetPoint" />
            <Array as="points">
              <mxPoint x="1500" y="563" />
              <mxPoint x="1500" y="417" />
            </Array>
          </mxGeometry>
        </mxCell>
        <mxCell id="_I3Acwl3Vb4N00rprZtQ-45" value="" style="endArrow=classic;html=1;rounded=0;entryX=0;entryY=0.5;entryDx=0;entryDy=0;exitX=1;exitY=0.5;exitDx=0;exitDy=0;edgeStyle=orthogonalEdgeStyle;" edge="1" parent="1" source="QBSZ2mpLJ4u34UwG9ziR-81" target="_I3Acwl3Vb4N00rprZtQ-27">
          <mxGeometry width="50" height="50" relative="1" as="geometry">
            <mxPoint x="1210" y="600" as="sourcePoint" />
            <mxPoint x="1260" y="550" as="targetPoint" />
            <Array as="points">
              <mxPoint x="1500" y="563" />
              <mxPoint x="1500" y="468" />
            </Array>
          </mxGeometry>
        </mxCell>
        <mxCell id="_I3Acwl3Vb4N00rprZtQ-46" value="" style="endArrow=classic;html=1;rounded=0;entryX=0;entryY=0.5;entryDx=0;entryDy=0;exitX=1;exitY=0.5;exitDx=0;exitDy=0;edgeStyle=orthogonalEdgeStyle;" edge="1" parent="1" source="QBSZ2mpLJ4u34UwG9ziR-82" target="_I3Acwl3Vb4N00rprZtQ-28">
          <mxGeometry width="50" height="50" relative="1" as="geometry">
            <mxPoint x="1210" y="600" as="sourcePoint" />
            <mxPoint x="1260" y="550" as="targetPoint" />
            <Array as="points">
              <mxPoint x="1520" y="615" />
              <mxPoint x="1520" y="519" />
            </Array>
          </mxGeometry>
        </mxCell>
        <mxCell id="_I3Acwl3Vb4N00rprZtQ-47" value="" style="endArrow=classic;html=1;rounded=0;entryX=0;entryY=0.5;entryDx=0;entryDy=0;exitX=1;exitY=0.5;exitDx=0;exitDy=0;edgeStyle=orthogonalEdgeStyle;" edge="1" parent="1" source="QBSZ2mpLJ4u34UwG9ziR-82" target="_I3Acwl3Vb4N00rprZtQ-29">
          <mxGeometry width="50" height="50" relative="1" as="geometry">
            <mxPoint x="1210" y="600" as="sourcePoint" />
            <mxPoint x="1260" y="550" as="targetPoint" />
            <Array as="points">
              <mxPoint x="1520" y="615" />
              <mxPoint x="1520" y="570" />
            </Array>
          </mxGeometry>
        </mxCell>
        <mxCell id="_I3Acwl3Vb4N00rprZtQ-48" value="" style="endArrow=classic;html=1;rounded=0;entryX=0;entryY=0.5;entryDx=0;entryDy=0;exitX=1;exitY=0.5;exitDx=0;exitDy=0;" edge="1" parent="1" source="QBSZ2mpLJ4u34UwG9ziR-83" target="_I3Acwl3Vb4N00rprZtQ-30">
          <mxGeometry width="50" height="50" relative="1" as="geometry">
            <mxPoint x="1210" y="600" as="sourcePoint" />
            <mxPoint x="1260" y="550" as="targetPoint" />
          </mxGeometry>
        </mxCell>
        <mxCell id="_I3Acwl3Vb4N00rprZtQ-49" value="" style="endArrow=classic;html=1;rounded=0;entryX=0;entryY=0.5;entryDx=0;entryDy=0;exitX=1;exitY=0.5;exitDx=0;exitDy=0;" edge="1" parent="1" source="QBSZ2mpLJ4u34UwG9ziR-83" target="_I3Acwl3Vb4N00rprZtQ-31">
          <mxGeometry width="50" height="50" relative="1" as="geometry">
            <mxPoint x="1210" y="600" as="sourcePoint" />
            <mxPoint x="1260" y="550" as="targetPoint" />
          </mxGeometry>
        </mxCell>
        <mxCell id="_I3Acwl3Vb4N00rprZtQ-50" value="" style="endArrow=classic;html=1;rounded=0;entryX=0;entryY=0.5;entryDx=0;entryDy=0;exitX=1;exitY=0.5;exitDx=0;exitDy=0;" edge="1" parent="1" source="QBSZ2mpLJ4u34UwG9ziR-84" target="_I3Acwl3Vb4N00rprZtQ-32">
          <mxGeometry width="50" height="50" relative="1" as="geometry">
            <mxPoint x="1210" y="790" as="sourcePoint" />
            <mxPoint x="1260" y="740" as="targetPoint" />
          </mxGeometry>
        </mxCell>
        <mxCell id="_I3Acwl3Vb4N00rprZtQ-51" value="" style="endArrow=classic;html=1;rounded=0;entryX=0;entryY=0.5;entryDx=0;entryDy=0;exitX=1;exitY=0.5;exitDx=0;exitDy=0;" edge="1" parent="1" source="QBSZ2mpLJ4u34UwG9ziR-84" target="_I3Acwl3Vb4N00rprZtQ-33">
          <mxGeometry width="50" height="50" relative="1" as="geometry">
            <mxPoint x="1210" y="790" as="sourcePoint" />
            <mxPoint x="1260" y="740" as="targetPoint" />
          </mxGeometry>
        </mxCell>
        <mxCell id="_I3Acwl3Vb4N00rprZtQ-52" value="" style="endArrow=classic;html=1;rounded=0;entryX=0;entryY=0.5;entryDx=0;entryDy=0;exitX=1;exitY=0.5;exitDx=0;exitDy=0;edgeStyle=orthogonalEdgeStyle;" edge="1" parent="1" source="QBSZ2mpLJ4u34UwG9ziR-85" target="_I3Acwl3Vb4N00rprZtQ-34">
          <mxGeometry width="50" height="50" relative="1" as="geometry">
            <mxPoint x="1210" y="880" as="sourcePoint" />
            <mxPoint x="1260" y="830" as="targetPoint" />
          </mxGeometry>
        </mxCell>
        <mxCell id="_I3Acwl3Vb4N00rprZtQ-53" value="" style="endArrow=classic;html=1;rounded=0;entryX=0;entryY=0.5;entryDx=0;entryDy=0;exitX=1;exitY=0.5;exitDx=0;exitDy=0;edgeStyle=orthogonalEdgeStyle;" edge="1" parent="1" source="QBSZ2mpLJ4u34UwG9ziR-86" target="_I3Acwl3Vb4N00rprZtQ-36">
          <mxGeometry width="50" height="50" relative="1" as="geometry">
            <mxPoint x="1210" y="880" as="sourcePoint" />
            <mxPoint x="1260" y="830" as="targetPoint" />
            <Array as="points">
              <mxPoint x="1480" y="823" />
              <mxPoint x="1480" y="878" />
            </Array>
          </mxGeometry>
        </mxCell>
        <mxCell id="_I3Acwl3Vb4N00rprZtQ-54" value="" style="endArrow=classic;html=1;rounded=0;entryX=0;entryY=0.5;entryDx=0;entryDy=0;exitX=1;exitY=0.5;exitDx=0;exitDy=0;edgeStyle=orthogonalEdgeStyle;" edge="1" parent="1" source="QBSZ2mpLJ4u34UwG9ziR-86" target="_I3Acwl3Vb4N00rprZtQ-37">
          <mxGeometry width="50" height="50" relative="1" as="geometry">
            <mxPoint x="1210" y="880" as="sourcePoint" />
            <mxPoint x="1260" y="830" as="targetPoint" />
            <Array as="points">
              <mxPoint x="1480" y="823" />
              <mxPoint x="1480" y="929" />
            </Array>
          </mxGeometry>
        </mxCell>
        <mxCell id="_I3Acwl3Vb4N00rprZtQ-55" value="" style="endArrow=classic;html=1;rounded=0;entryX=0;entryY=0.5;entryDx=0;entryDy=0;exitX=1;exitY=0.5;exitDx=0;exitDy=0;edgeStyle=orthogonalEdgeStyle;" edge="1" parent="1" source="QBSZ2mpLJ4u34UwG9ziR-87" target="_I3Acwl3Vb4N00rprZtQ-38">
          <mxGeometry width="50" height="50" relative="1" as="geometry">
            <mxPoint x="1210" y="1080" as="sourcePoint" />
            <mxPoint x="1260" y="1030" as="targetPoint" />
            <Array as="points">
              <mxPoint x="1470" y="875" />
              <mxPoint x="1470" y="982" />
            </Array>
          </mxGeometry>
        </mxCell>
        <mxCell id="_I3Acwl3Vb4N00rprZtQ-56" value="" style="endArrow=classic;html=1;rounded=0;entryX=0;entryY=0.5;entryDx=0;entryDy=0;exitX=1;exitY=0.5;exitDx=0;exitDy=0;edgeStyle=orthogonalEdgeStyle;" edge="1" parent="1" source="QBSZ2mpLJ4u34UwG9ziR-87" target="_I3Acwl3Vb4N00rprZtQ-39">
          <mxGeometry width="50" height="50" relative="1" as="geometry">
            <mxPoint x="1210" y="1080" as="sourcePoint" />
            <mxPoint x="1260" y="1030" as="targetPoint" />
            <Array as="points">
              <mxPoint x="1470" y="875" />
              <mxPoint x="1470" y="1033" />
            </Array>
          </mxGeometry>
        </mxCell>
        <mxCell id="_I3Acwl3Vb4N00rprZtQ-57" value="" style="endArrow=classic;html=1;rounded=0;entryX=0;entryY=0.5;entryDx=0;entryDy=0;exitX=1;exitY=0.5;exitDx=0;exitDy=0;edgeStyle=orthogonalEdgeStyle;" edge="1" parent="1" source="QBSZ2mpLJ4u34UwG9ziR-88" target="_I3Acwl3Vb4N00rprZtQ-41">
          <mxGeometry width="50" height="50" relative="1" as="geometry">
            <mxPoint x="1210" y="1080" as="sourcePoint" />
            <mxPoint x="1260" y="1030" as="targetPoint" />
            <Array as="points">
              <mxPoint x="1460" y="928" />
              <mxPoint x="1460" y="1135" />
            </Array>
          </mxGeometry>
        </mxCell>
        <mxCell id="_I3Acwl3Vb4N00rprZtQ-58" value="" style="endArrow=classic;html=1;rounded=0;entryX=0;entryY=0.5;entryDx=0;entryDy=0;exitX=1;exitY=0.5;exitDx=0;exitDy=0;edgeStyle=orthogonalEdgeStyle;" edge="1" parent="1" source="QBSZ2mpLJ4u34UwG9ziR-88" target="_I3Acwl3Vb4N00rprZtQ-40">
          <mxGeometry width="50" height="50" relative="1" as="geometry">
            <mxPoint x="1210" y="1080" as="sourcePoint" />
            <mxPoint x="1260" y="1030" as="targetPoint" />
            <Array as="points">
              <mxPoint x="1460" y="928" />
              <mxPoint x="1460" y="1084" />
            </Array>
          </mxGeometry>
        </mxCell>
      </root>
    </mxGraphModel>
  </diagram>
</mxfile>
